<svg width="700" height="700" viewBox="0 0 700 700" fill="none" xmlns="http://www.w3.org/2000/svg">
<rect width="700" height="700" fill="#0F6AF3"/>
<path fill-rule="evenodd" clip-rule="evenodd" d="M85 59V640.818H191.5H239.211C197.286 625.92 178.173 588.847 178.173 551.774C178.173 511.828 202.139 495.848 202.139 495.848C202.139 495.848 218.118 535.794 258.064 535.794C282.03 535.794 290.02 527.804 290.02 519.814C290.02 509.353 285.454 503.459 280.308 496.815C273.665 488.238 266.054 478.413 266.054 455.902C266.054 431.937 282.03 391.991 329.966 391.991C385.887 391.991 393.877 447.917 393.877 447.917C385.89 459.899 377.901 463.893 371.909 466.889C365.917 469.885 361.922 471.882 361.922 479.872C361.922 487.862 377.901 495.852 377.901 495.852C377.901 495.852 369.911 503.838 369.911 519.818C369.911 526.009 373.51 529.802 377.918 534.448C384.887 541.794 393.882 551.275 393.882 575.744C393.882 604.641 368.796 629.356 345.846 640.818H425.909H458.5H614.545L413.409 318.091L610 59H425.909L250.909 294.227H242.955V59H85ZM417.847 455.907C401.867 455.907 393.882 447.917 393.882 447.917C385.892 459.899 377.903 463.894 371.912 466.891C365.92 469.887 361.926 471.884 361.926 479.872C361.926 487.862 377.906 495.852 377.906 495.852C393.886 495.852 433.832 471.887 433.832 463.897C433.832 455.907 425.837 455.907 417.847 455.907Z" fill="#F3C10F"/>
</svg>
