<?xml version="1.0" standalone="no"?>
<!DOCTYPE svg PUBLIC "-//W3C//DTD SVG 20010904//EN"
 "http://www.w3.org/TR/2001/REC-SVG-20010904/DTD/svg10.dtd">
<svg version="1.0" xmlns="http://www.w3.org/2000/svg"
 width="700.000000pt" height="700.000000pt" viewBox="0 0 700.000000 700.000000"
 preserveAspectRatio="xMidYMid meet">
<metadata>
Created by potrace 1.14, written by Peter Selinger 2001-2017
</metadata>
<g transform="translate(0.000000,700.000000) scale(0.100000,-0.100000)"
fill="#000000" stroke="none">
<path d="M0 3500 l0 -3500 3500 0 3500 0 0 3500 0 3500 -3500 0 -3500 0 0
-3500z m2430 1730 l0 -1180 39 0 39 0 878 1180 878 1180 914 0 c728 0 912 -3
906 -12 -5 -7 -446 -590 -981 -1296 l-974 -1283 204 -327 c112 -180 563 -902
1001 -1605 438 -702 796 -1280 796 -1282 0 -3 -595 -5 -1321 -5 l-1322 0 79
51 c101 66 229 195 282 284 63 107 84 174 89 295 8 181 -26 279 -146 419 -38
44 -74 96 -81 116 -16 48 2 154 38 219 26 48 29 49 102 67 98 24 277 113 378
188 89 66 112 93 112 132 0 48 -30 62 -161 74 -98 10 -129 17 -175 41 -56 29
-57 30 -79 104 -30 101 -49 143 -101 222 -83 125 -212 217 -355 252 -93 23
-256 21 -354 -4 -271 -69 -455 -324 -455 -629 0 -164 27 -244 132 -388 75
-104 99 -160 101 -229 1 -48 -2 -57 -33 -88 -46 -49 -106 -67 -234 -73 -166
-8 -262 20 -384 112 -66 50 -151 150 -192 228 -14 26 -28 47 -31 47 -16 0 -63
-48 -105 -106 -100 -140 -140 -292 -131 -499 7 -159 30 -253 95 -389 86 -179
217 -313 396 -406 l77 -40 -750 0 -751 0 0 2905 0 2905 790 0 790 0 0 -1180z"/>
</g>
</svg>
