<svg width="256" height="257" viewBox="0 0 256 257" fill="none" xmlns="http://www.w3.org/2000/svg">
<path d="M199.901 104.852C199.901 104.852 183.921 96.8625 183.921 88.8725C183.921 72.8925 199.901 80.8825 215.877 56.9167C215.877 56.9167 207.887 0.990967 151.966 0.990967C104.03 0.990967 88.0542 40.9367 88.0542 64.9025C88.0542 104.848 112.02 104.848 112.02 128.814C112.02 136.804 104.03 144.794 80.0642 144.794C40.1185 144.794 24.1385 104.848 24.1385 104.848C24.1385 104.848 0.172729 120.828 0.172729 160.774C0.172729 208.71 32.1285 256.645 104.034 256.645H143.98C167.946 256.645 215.881 224.69 215.881 184.744C215.881 144.798 191.911 144.798 191.911 128.818C191.911 112.838 199.901 104.852 199.901 104.852Z" fill="white"/>
<path d="M239.847 64.9067C223.867 64.9067 215.882 56.9167 215.882 56.9167C199.902 80.8824 183.926 72.8967 183.926 88.8724C183.926 96.8624 199.906 104.852 199.906 104.852C215.886 104.852 255.832 80.8867 255.832 72.8967C255.832 64.9067 247.837 64.9067 239.847 64.9067Z" fill="white"/>
</svg>
